<svg width="265" height="61" viewBox="0 0 265 61" fill="none" xmlns="http://www.w3.org/2000/svg">
<g clip-path="url(#clip0_4_307)">
<path d="M136.525 15.7209C133.965 15.7209 131.705 16.1492 129.748 17.0016C127.791 17.8582 126.137 18.9918 124.782 20.4111C123.668 18.6014 122.318 17.3711 120.722 16.7077C119.127 16.0485 117.531 15.7209 115.935 15.7209C112.794 15.7209 109.603 16.7959 106.366 18.9457V16.3046H96.9414V52.9353H106.727V26.4154C107.695 25.5882 108.697 24.95 109.736 24.5133C110.774 24.0725 111.996 23.8541 113.401 23.8541C115.237 23.8541 116.575 24.4 117.423 25.5001C118.267 26.6002 118.69 28.2965 118.69 30.5933V52.9353H128.48V30.8116C128.48 28.8088 129.083 27.1628 130.292 25.8654C131.501 24.5721 133.168 23.9255 135.295 23.9255C137.132 23.9255 138.449 24.4755 139.243 25.5756C140.04 26.6715 140.439 28.3469 140.439 30.5933V52.9353H150.229V30.1524C150.229 27.2216 149.805 24.8282 148.958 22.9724C148.114 21.1165 147.038 19.6511 145.733 18.5762C144.428 17.5055 142.966 16.7581 141.345 16.3424C139.729 15.9267 138.121 15.7209 136.525 15.7209Z" fill="white"/>
<path d="M169.851 53.5231C174.974 53.5231 178.963 52.2299 181.814 49.6392C184.665 47.0527 186.09 43.2654 186.09 38.2855V16.3046H176.304V38.2855C176.304 40.8258 175.735 42.6565 174.6 43.7776C173.466 44.9029 171.883 45.4656 169.851 45.4656C167.823 45.4656 166.24 44.9029 165.101 43.7776C163.967 42.6565 163.398 40.8258 163.398 38.2855V16.3046H153.612V38.2855C153.612 43.2654 155.037 47.0527 157.888 49.6392C160.742 52.2299 164.727 53.5231 169.851 53.5231Z" fill="white"/>
<path d="M189.476 16.3046L200.712 52.9353H216.299L227.535 16.3046H217.313L209.7 44.4368H207.672L199.698 16.3046H189.476Z" fill="white"/>
<path d="M230.921 34.1833C230.921 40.238 232.48 44.9743 235.596 48.3964C238.713 51.8142 243.051 53.5232 248.611 53.5232C252.621 53.5232 255.92 52.7422 258.509 51.176C261.093 49.614 262.942 47.3677 264.052 44.4369L256.223 41.2163C255.691 42.4844 254.893 43.5215 253.83 44.3277C252.766 45.1339 251.15 45.537 248.972 45.537C248.104 45.537 247.231 45.4152 246.363 45.1717C245.494 44.9281 244.671 44.4872 243.898 43.8532C243.126 43.2192 242.473 42.35 241.941 41.2499C241.409 40.154 241.023 38.7474 240.782 37.0385H264.343V32.9362C264.343 30.4925 263.981 28.2377 263.254 26.1593C262.531 24.085 261.48 22.2669 260.1 20.7008C258.725 19.1388 257.046 17.9169 255.064 17.0394C253.082 16.1618 250.834 15.7209 248.32 15.7209C245.519 15.7209 243.026 16.1954 240.853 17.1486C238.679 18.1017 236.855 19.4075 235.38 21.0703C233.905 22.7288 232.795 24.6813 232.043 26.9277C231.295 29.1741 230.921 31.5926 230.921 34.1833ZM248.611 23.5602C250.688 23.5602 252.346 24.2194 253.576 25.5379C254.81 26.8563 255.475 28.54 255.571 30.5933H240.923C241.314 28.3931 242.145 26.6715 243.425 25.4287C244.709 24.1816 246.437 23.5602 248.611 23.5602Z" fill="white"/>
<path fill-rule="evenodd" clip-rule="evenodd" d="M36.548 0.60931L49.8492 14.0456H53.4643L63.7778 3.62828C64.0105 3.38895 64.397 3.38895 64.6338 3.62828L85.4562 24.6645C85.6889 24.9038 85.6889 25.2943 85.4562 25.5337L74.5568 36.543C74.3241 36.7824 73.9376 36.7824 73.7008 36.543L53.3397 15.9729H50.0112L35.0729 31.0677C34.836 31.3071 34.4496 31.3071 34.2127 31.0677L20.309 17.0184C20.0721 16.7791 20.0721 16.3886 20.309 16.1492L35.6878 0.60931C35.9247 0.369976 36.3111 0.369976 36.548 0.60931Z" fill="white"/>
<path fill-rule="evenodd" clip-rule="evenodd" d="M13.0784 24.3244L33.3564 44.8148H37.1419L51.6813 30.123C51.9182 29.8837 52.3046 29.8837 52.5415 30.123L66.5366 44.2647C66.7735 44.5041 66.7735 44.8946 66.5366 45.1339L51.2201 60.6066C50.9874 60.846 50.601 60.846 50.3641 60.6066L36.6391 46.7378H33.4769L22.7935 57.5331C22.5567 57.7724 22.1702 57.7724 21.9334 57.5331L1.07364 36.4549C0.836783 36.2155 0.836783 35.825 1.07364 35.5857L12.2182 24.3244C12.4551 24.0851 12.8415 24.0851 13.0784 24.3244Z" fill="white"/>
</g>
<defs>
<clipPath id="clip0_4_307">
<rect width="263.448" height="60.4634" fill="white" transform="translate(0.895508 0.376221)"/>
</clipPath>
</defs>
</svg>
