<svg width="264" height="62" viewBox="0 0 264 62" fill="none" xmlns="http://www.w3.org/2000/svg">
<g clip-path="url(#clip0_4_296)">
<path d="M136.077 16.0398C133.518 16.0398 131.257 16.4681 129.3 17.3204C127.343 18.177 125.689 19.3107 124.334 20.7299C123.221 18.9202 121.87 17.6899 120.275 17.0265C118.679 16.3673 117.083 16.0398 115.488 16.0398C112.346 16.0398 109.155 17.1147 105.918 19.2645V16.6234H96.4937V53.2542H106.279V26.7343C107.248 25.9071 108.249 25.2689 109.288 24.8322C110.327 24.3913 111.548 24.173 112.953 24.173C114.79 24.173 116.128 24.7188 116.975 25.8189C117.819 26.919 118.243 28.6153 118.243 30.9121V53.2542H128.033V31.1305C128.033 29.1276 128.635 27.4817 129.844 26.1842C131.053 24.891 132.72 24.2443 134.847 24.2443C136.684 24.2443 138.001 24.7944 138.795 25.8945C139.593 26.9904 139.992 28.6657 139.992 30.9121V53.2542H149.782V30.4712C149.782 27.5404 149.358 25.1471 148.51 23.2912C147.666 21.4353 146.59 19.9699 145.285 18.895C143.981 17.8243 142.518 17.0769 140.897 16.6612C139.281 16.2455 137.673 16.0398 136.077 16.0398Z" fill="#155EC4"/>
<path d="M169.404 53.842C174.527 53.842 178.516 52.5487 181.367 49.9581C184.217 47.3716 185.643 43.5842 185.643 38.6044V16.6234H175.857V38.6044C175.857 41.1447 175.288 42.9754 174.153 44.0965C173.019 45.2218 171.436 45.7844 169.404 45.7844C167.376 45.7844 165.793 45.2218 164.654 44.0965C163.52 42.9754 162.95 41.1447 162.95 38.6044V16.6234H153.165V38.6044C153.165 43.5842 154.59 47.3716 157.44 49.9581C160.295 52.5487 164.28 53.842 169.404 53.842Z" fill="#155EC4"/>
<path d="M189.029 16.6234L200.265 53.2542H215.851L227.087 16.6234H216.865L209.253 44.7557H207.225L199.251 16.6234H189.029Z" fill="#155EC4"/>
<path d="M230.474 34.5021C230.474 40.5569 232.032 45.2932 235.149 48.7152C238.265 52.1331 242.604 53.842 248.163 53.842C252.173 53.842 255.473 53.061 258.061 51.4949C260.646 49.9329 262.495 47.6865 263.605 44.7557L255.776 41.5352C255.244 42.8032 254.446 43.8404 253.382 44.6465C252.319 45.4527 250.702 45.8558 248.525 45.8558C247.656 45.8558 246.784 45.734 245.915 45.4905C245.047 45.247 244.224 44.8061 243.451 44.1721C242.678 43.538 242.026 42.6689 241.494 41.5688C240.962 40.4729 240.576 39.0663 240.335 37.3573H263.895V33.2551C263.895 30.8113 263.534 28.5566 262.807 26.4781C262.084 24.4039 261.032 22.5858 259.653 21.0196C258.277 19.4577 256.599 18.2358 254.617 17.3582C252.634 16.4807 250.386 16.0398 247.872 16.0398C245.072 16.0398 242.579 16.5143 240.405 17.4674C238.232 18.4205 236.408 19.7264 234.933 21.3891C233.458 23.0477 232.348 25.0001 231.596 27.2465C230.848 29.4929 230.474 31.9114 230.474 34.5021ZM248.163 23.879C250.241 23.879 251.899 24.5383 253.129 25.8567C254.363 27.1751 255.028 28.8589 255.124 30.9121H240.476C240.867 28.7119 241.698 26.9904 242.977 25.7475C244.261 24.5005 245.99 23.879 248.163 23.879Z" fill="#155EC4"/>
<path fill-rule="evenodd" clip-rule="evenodd" d="M36.1007 0.928158L49.4019 14.3645H53.0171L63.3306 3.94713C63.5633 3.70779 63.9497 3.70779 64.1866 3.94713L85.0089 24.9834C85.2416 25.2227 85.2416 25.6132 85.0089 25.8525L74.1095 36.8619C73.8768 37.1012 73.4904 37.1012 73.2535 36.8619L52.8924 16.2917H49.564L34.6256 31.3866C34.3887 31.6259 34.0023 31.6259 33.7654 31.3866L19.8617 17.3373C19.6249 17.0979 19.6249 16.7074 19.8617 16.4681L35.2406 0.928158C35.4774 0.688824 35.8639 0.688824 36.1007 0.928158Z" fill="#155EC4"/>
<path fill-rule="evenodd" clip-rule="evenodd" d="M12.6311 24.6432L32.9091 45.1336H36.6946L51.2341 30.4419C51.4709 30.2025 51.8574 30.2025 52.0942 30.4419L66.0894 44.5836C66.3262 44.8229 66.3262 45.2134 66.0894 45.4527L50.7728 60.9255C50.5401 61.1648 50.1537 61.1648 49.9168 60.9255L36.1918 47.0567H33.0296L22.3463 57.8519C22.1094 58.0913 21.723 58.0913 21.4861 57.8519L0.626371 36.7737C0.389517 36.5344 0.389517 36.1439 0.626371 35.9046L11.771 24.6432C12.0078 24.4039 12.3943 24.4039 12.6311 24.6432Z" fill="#155EC4"/>
</g>
<defs>
<clipPath id="clip0_4_296">
<rect width="263.448" height="60.4634" fill="white" transform="translate(0.447754 0.695068)"/>
</clipPath>
</defs>
</svg>
